HIERARCHY
ROOT Hips
{
	OFFSET 0.00000 0.00000 0.00000
	CHANNELS 6 Xposition Yposition Zposition Zrotation Yrotation Xrotation 
	JOINT LHipJoint
	{
		OFFSET 0 0 0
		CHANNELS 3 Zrotation Yrotation Xrotation
		JOINT LeftHip
		{
			OFFSET 1.48831 -1.59570 0.95625
			CHANNELS 3 Zrotation Yrotation Xrotation
			JOINT LeftKnee
			{
				OFFSET 2.20856 -6.06797 0.00000
				CHANNELS 3 Zrotation Yrotation Xrotation
				JOINT LeftAnkle
				{
					OFFSET 2.62924 -7.22379 0.00000
					CHANNELS 3 Zrotation Yrotation Xrotation
					JOINT LeftToe
					{
						OFFSET 0.16802 -0.46163 2.41673
						CHANNELS 3 Zrotation Yrotation Xrotation
						End Site
						{
							OFFSET 0.00000 -0.00000 1.23760
						}
					}
				}
			}
		}
	}
	JOINT RHipJoint
	{
		OFFSET 0 0 0
		CHANNELS 3 Zrotation Yrotation Xrotation
		JOINT RightHip
		{
			OFFSET -1.56796 -1.59570 0.95625
			CHANNELS 3 Zrotation Yrotation Xrotation
			JOINT RightKnee
			{
				OFFSET -2.29239 -6.29829 0.00000
				CHANNELS 3 Zrotation Yrotation Xrotation
				JOINT RightAnkle
				{
					OFFSET -2.66963 -7.33475 0.00000
					CHANNELS 3 Zrotation Yrotation Xrotation
					JOINT RightToe
					{
						OFFSET -0.18185 -0.49964 2.34359
						CHANNELS 3 Zrotation Yrotation Xrotation
						End Site
						{
							OFFSET -0.00000 -0.00000 1.20477
						}
					}
				}
			}
		}
	}
	JOINT lowerback
	{
		OFFSET 0 0 0
		CHANNELS 3 Zrotation Yrotation Xrotation
		JOINT Chest
		{
			OFFSET 0.03505 2.15832 -0.34324
			CHANNELS 3 Zrotation Yrotation Xrotation
			JOINT Chest2
			{
				OFFSET -0.01089 2.17963 0.04689
				CHANNELS 3 Zrotation Yrotation Xrotation
				JOINT lowerneck
				{
					OFFSET 0 0 0
					CHANNELS 3 Zrotation Yrotation Xrotation
					JOINT Neck
					{
						OFFSET 0.04686 1.69404 0.22159
						CHANNELS 3 Zrotation Yrotation Xrotation
						JOINT Head
						{
							OFFSET 0.00265 1.69305 -0.01513
							CHANNELS 3 Zrotation Yrotation Xrotation
							End Site
							{
								OFFSET -0.00415 1.80215 -0.03034
							}
						}
					}
				}
				JOINT LeftCollar
				{
					OFFSET 0 0 0
					CHANNELS 3 Zrotation Yrotation Xrotation
					JOINT LeftShoulder
					{
						OFFSET 3.67184 1.11724 -0.19002
CHANNELS 3 Zrotation Xrotation Yrotation
						JOINT LeftElbow
						{
OFFSET 0 -5.177140 -0.000000
CHANNELS 3 Zrotation Xrotation Yrotation
							JOINT LeftWrist
							{
OFFSET 0 -3.436790 -0.000000
CHANNELS 3 Zrotation Xrotation Yrotation
								JOINT lhand
								{
									OFFSET 0 0 0
CHANNELS 3 Zrotation Xrotation Yrotation
									JOINT LFingers
									{
OFFSET 0 -0.573120 -0.000000
CHANNELS 3 Zrotation Xrotation Yrotation
										End Site
										{
OFFSET 0 -0.462060 -0.000000
										}
									}
								}
								JOINT LThumb
								{
OFFSET 0 0.000000 0.000000
CHANNELS 3 Zrotation Xrotation Yrotation
									End Site
									{
OFFSET 0 -0.469120 0.469120
									}
								}
							}
						}
					}
				}
				JOINT RightCollar
				{
					OFFSET 0 0 0
					CHANNELS 3 Zrotation Yrotation Xrotation
					JOINT RightShoulder
					{
						OFFSET -3.59596 0.95831 -0.26050
CHANNELS 3 Zrotation Xrotation Yrotation
						JOINT RightElbow
						{
OFFSET 0 -5.239080 -0.000000
CHANNELS 3 Zrotation Xrotation Yrotation
							JOINT RightWrist
							{
OFFSET 0 -3.464850 -0.000000
CHANNELS 3 Zrotation Xrotation Yrotation
								JOINT rhand
								{
									OFFSET 0 0 0
CHANNELS 3 Zrotation Xrotation Yrotation
									JOINT RFingers
									{
OFFSET 0 -0.608750 -0.000000
CHANNELS 3 Zrotation Xrotation Yrotation
										End Site
										{
OFFSET 0 -0.490790 -0.000000
										}
									}
								}
								JOINT RThumb
								{
OFFSET 0 0.000000 0.000000
CHANNELS 3 Zrotation Xrotation Yrotation
									End Site
									{
OFFSET 0 -0.498290 0.498290
									}
								}
							}
						}
					}
				}
			}
		}
	}
}
MOTION
Frames: 5
Frame Time: 0.008333333333333333
1.137664 16.328700 -0.036146 -174.455886 -62.524654 171.092820 0.000000 0.000000 0.000000 -18.685742 11.061806 -2.376290 1.678814 8.162275 23.208044 1.570201 16.380843 -34.378635 0.140832 2.418113 6.662650 0.000000 0.000000 0.000000 25.038067 7.172066 -7.644200 -4.144954 -12.350788 36.984468 -2.044624 -2.968610 -28.210614 -0.038007 -1.258175 3.459440 2.686889 2.785090 -2.094230 1.166259 3.638817 -2.637957 -0.273327 1.758431 -1.442594 1.661282 6.724246 10.572043 14.419369 11.972591 -20.466757 3.332413 3.728751 -9.039898 0.000000 0.000000 0.000000 11.101030 29.687326 -50.628343 39.453143 -47.742566 18.033455 43.072926 -16.222657 -0.900345 0.000000 0.000000 0.000000 -7.125000 0.000000 0.000000 13.086449 31.048127 4.568055 0.000000 0.000000 0.000000 -1.509307 -28.420620 76.144811 -122.017365 -55.747929 -87.332028 -54.342104 3.869572 -4.741440 0.000000 0.000000 0.000000 7.125000 0.000000 0.000000 -19.886039 21.991485 -11.698028
1.163025 16.327777 -0.120608 -174.400362 -59.710683 171.347686 0.000000 0.000000 0.000000 -18.443788 10.839747 -2.226321 1.695516 8.200842 23.325791 1.831196 17.587845 -36.867774 0.223045 3.039786 8.389627 0.000000 0.000000 0.000000 25.632227 8.014863 -7.708747 -4.115731 -12.312768 36.847643 -1.922084 -1.726173 -26.875391 -0.043666 -1.348646 3.708640 2.537749 2.597281 -1.966531 1.361828 3.391989 -2.892624 -0.006888 1.629229 -1.802163 1.488724 6.440290 10.778127 14.195218 11.473885 -20.223716 3.333222 3.543121 -8.947157 0.000000 0.000000 0.000000 10.970547 29.941987 -50.946197 39.478069 -47.757639 18.051882 43.609464 -16.329529 -0.843622 0.000000 0.000000 0.000000 -7.125000 0.000000 0.000000 13.496639 30.971300 4.744058 0.000000 0.000000 0.000000 -1.850924 -28.026713 76.085611 -122.234503 -55.684527 -87.511434 -54.355162 5.656146 -3.622407 0.000000 0.000000 0.000000 7.125000 0.000000 0.000000 -20.249066 23.773770 -11.048563
1.190028 16.334234 -0.195249 -174.421072 -57.166035 171.825377 0.000000 0.000000 0.000000 -18.373465 10.352619 -2.198687 1.708034 8.229516 23.413296 2.204922 18.468502 -39.485280 0.344760 3.772595 10.437743 0.000000 0.000000 0.000000 26.091153 8.857778 -7.944512 -4.084677 -12.272247 36.702004 -1.806011 -0.585700 -25.643848 -0.047477 -1.405996 3.866722 2.443145 2.423618 -2.182975 1.425684 3.148243 -3.031854 0.115723 1.504971 -1.836962 1.411291 6.227004 10.795381 13.970967 11.075347 -19.989939 3.312134 3.401599 -8.825904 0.000000 0.000000 0.000000 10.820596 29.913445 -50.811439 39.539709 -47.794804 18.097520 43.115782 -15.951054 -1.177514 0.000000 0.000000 0.000000 -7.125000 0.000000 0.000000 13.168628 31.417805 4.478028 0.000000 0.000000 0.000000 -1.917791 -28.054013 75.966412 -122.236788 -55.683863 -87.513324 -54.304783 4.215836 -4.434315 0.000000 0.000000 0.000000 7.125000 0.000000 0.000000 -19.957360 22.486983 -11.503075
1.210244 16.335700 -0.257293 -174.555669 -54.972659 172.287518 0.000000 0.000000 0.000000 -18.298888 10.490983 -2.268402 1.708397 8.230260 23.415574 2.493568 19.055097 -41.309826 0.429026 4.203575 11.650132 0.000000 0.000000 0.000000 26.407432 9.606472 -8.103365 -4.077316 -12.262557 36.667354 -1.708892 0.535046 -24.575718 -0.057196 -1.542662 4.243265 2.254207 2.241428 -2.215776 1.473425 2.902942 -3.139843 0.266605 1.382669 -1.944954 1.607572 5.817520 11.200999 13.216694 10.441896 -20.170314 3.088676 3.142622 -8.856346 0.000000 0.000000 0.000000 10.722170 29.897568 -50.635655 39.830698 -47.969281 18.313301 42.938403 -15.799010 -1.037647 0.000000 0.000000 0.000000 -7.125000 0.000000 0.000000 13.004585 31.230992 4.479550 0.000000 0.000000 0.000000 -1.844820 -28.074004 76.114143 -122.339522 -55.653604 -87.598167 -54.009966 3.540997 -4.708938 0.000000 0.000000 0.000000 7.125000 0.000000 0.000000 -19.675862 22.102372 -11.505427
1.220698 16.337162 -0.303465 -174.873828 -53.179146 172.840082 0.000000 0.000000 0.000000 -18.442444 10.607866 -2.195043 1.677564 8.159358 23.199152 2.696840 19.731940 -42.755860 0.485983 4.470188 12.403362 0.000000 0.000000 0.000000 26.480934 10.192641 -8.300524 -4.098601 -12.290513 36.767487 -1.623669 1.599638 -23.642470 -0.073480 -1.748697 4.811549 1.996868 2.065217 -2.320229 1.441211 2.665586 -3.133298 0.379337 1.269328 -1.892069 1.595158 5.517326 11.437166 12.664049 9.946137 -20.333447 2.956771 2.952389 -8.886563 0.000000 0.000000 0.000000 10.731877 29.801652 -50.777233 40.108790 -48.134196 18.520236 42.831745 -15.574748 -1.179369 0.000000 0.000000 0.000000 -7.125000 0.000000 0.000000 12.945060 31.419193 4.398015 0.000000 0.000000 0.000000 -1.745504 -28.105036 76.363732 -122.283247 -55.670133 -87.551727 -54.254159 4.045186 -4.527652 0.000000 0.000000 0.000000 7.125000 0.000000 0.000000 -19.894395 22.347280 -11.530253
